<svg version="1" xmlns="http://www.w3.org/2000/svg" width="346.667" height="346.667" viewBox="0 0 260.000000 260.000000"><path d="M71.8 17.6c-7.1 3-6.7-3.3-6.5 113.4.2 114.8-.1 108.8 6.2 112 1.8.9 6.7 1.6 12.5 1.8 7.8.2 10.1 0 13-1.6 4.5-2.4 7.3-8 7.4-14.8.1-3 .3-5.4.6-5.4s2.1 1.9 4 4.2c8.9 10.5 14.4 14.6 24.1 17.8 10.8 3.7 26.1 2 38.8-4.3 10-4.9 19.8-17.3 21.6-27.2 1.4-7.4 2-25.4 2-56 0-37.6-.8-52.2-3.1-59.1-6-18.1-21.7-29.3-41.9-29.9-17.7-.5-29 4.9-40.8 19.6-2 2.5-3.7 5.2-3.7 5.9 0 .7-.3 1.1-.6.7-.4-.3-.7-16.3-.8-35.4-.1-44.6.6-42.9-19.1-43.1-7-.1-11.1.3-13.7 1.4zm71.3 88.7c5.4 2.2 10.5 9.1 11.9 16 1.6 7.8 1.7 64.3.1 71-2.4 10.2-10.2 17-21 18.3-6.5.8-14.4-1.6-19.5-5.7-5.5-4.6-7.5-10.2-8.2-22.3-1-20.9-.5-50.7 1-61.3 1-6.5 5.9-13.1 11.6-15.5 6.9-2.9 17.9-3.1 24.1-.5z"/></svg>